<svg width="80" height="80" viewBox="0 0 80 80" fill="none" xmlns="http://www.w3.org/2000/svg">
<path d="M38.3635 31.0004C37.2359 31.0214 36.1429 31.8861 36.1429 33.2538V46.748C36.1429 47.9895 37.1455 48.9971 38.381 48.9971C39.6164 48.9971 40.619 47.9895 40.619 46.748V40.2733L45.5105 48.0527C46.7773 49.8339 49.5714 48.9363 49.5714 46.748V33.2538C49.5714 32.0124 48.5688 31.0048 47.3333 31.0048C46.0979 31.0048 45.0952 32.0124 45.0952 33.2538V40.0009L40.2038 31.9492C39.7287 31.2812 39.04 30.9878 38.3635 31.0004ZM18.2381 31.0048C17.0027 31.0048 16 32.0124 16 33.2538V46.748C16 47.9895 17.0027 48.9971 18.2381 48.9971H24.9524C26.1878 48.9971 27.1905 47.9895 27.1905 46.748C27.1905 45.5066 26.1878 44.499 24.9524 44.499H20.4762V33.2538C20.4762 32.0124 19.4735 31.0048 18.2381 31.0048ZM31.6667 31.0048C30.4312 31.0048 29.4286 32.0124 29.4286 33.2538V46.748C29.4286 47.9895 30.4312 48.9971 31.6667 48.9971C32.9021 48.9971 33.9048 47.9895 33.9048 46.748V33.2538C33.9048 32.0124 32.9021 31.0048 31.6667 31.0048ZM54.0476 31.0048C52.8122 31.0048 51.8095 32.0124 51.8095 33.2538V46.748C51.8095 47.9895 52.8122 48.9971 54.0476 48.9971H60.7619C61.9973 48.9971 63 47.9895 63 46.748C63 45.5066 61.9973 44.499 60.7619 44.499H56.2857V42.25H60.7619C61.9996 42.25 63 41.2424 63 40.0009C63 38.7595 61.9996 37.7519 60.7619 37.7519H56.2857V35.5029H60.7619C61.9973 35.5029 63 34.4953 63 33.2538C63 32.0124 61.9973 31.0048 60.7619 31.0048H54.0476Z" fill="black"/>
</svg>
