<svg width="80" height="80" viewBox="0 0 80 80" fill="none" xmlns="http://www.w3.org/2000/svg">
<path d="M48.6228 27V44.3333H54.5509V27H48.6228ZM25 27.0922V52.9078H32.0958C34.9476 52.9078 36.9461 52.8271 38.2036 52.6312C39.4611 52.4238 40.5838 52.0895 41.4371 51.617C42.4925 51.0408 43.2111 50.1764 43.7725 49.1277C44.3338 48.0789 44.6707 46.9149 44.6707 45.5319C44.6707 43.6188 44.1542 42.0629 43.1437 40.922C42.1445 39.7695 40.7972 39.1241 39.012 38.9858C40.6063 38.5363 41.6954 37.9255 42.4252 37.0496C43.1549 36.1968 43.503 35.0098 43.503 33.5461C43.503 32.3821 43.256 31.391 42.7844 30.5035C42.2904 29.6161 41.6392 28.9131 40.7186 28.383C39.9102 27.922 38.8772 27.5647 37.7545 27.3688C36.6205 27.1844 34.6557 27.0922 31.8263 27.0922H25ZM31.2874 32.8085H32.8144C34.5097 32.8085 35.6437 33.0621 36.2275 33.4539C36.8114 33.8457 37.1257 34.5142 37.1257 35.4823C37.1257 36.4158 36.7665 37.0381 36.1377 37.4184C35.509 37.7988 34.4087 37.9716 32.7246 37.9716H31.2874V32.8085ZM31.2874 42.5816H33.8024C35.4641 42.5816 36.6093 42.8005 37.2156 43.227C37.8331 43.6534 38.2036 44.4486 38.2036 45.5319C38.2036 46.5115 37.7994 47.2376 37.1257 47.6525C36.4521 48.0789 35.3293 48.2057 33.7126 48.2057H31.2874V42.5816ZM51.5868 46.0851C49.7231 46.0851 48.1737 47.6755 48.1737 49.5887C48.1737 51.5018 49.7231 53 51.5868 53C53.4506 53 55 51.5018 55 49.5887C55 47.6755 53.4506 46.0851 51.5868 46.0851Z" fill="black"/>
</svg>
