<svg width="80" height="80" viewBox="0 0 80 80" fill="none" xmlns="http://www.w3.org/2000/svg">
<path d="M54.4182 33.9749C54.432 34.278 54.4387 34.5825 54.4387 34.8884C54.4387 44.2287 47.2159 54.9995 34.0071 55C29.9517 55 26.178 53.8299 23 51.8248C23.5619 51.8901 24.1338 51.9226 24.7129 51.9226C28.0775 51.9226 31.1738 50.7929 33.6319 48.8968C30.4883 48.8395 27.8378 46.7959 26.9232 43.9872C27.3609 44.0699 27.8111 44.115 28.2727 44.115C28.9282 44.115 29.5631 44.0281 30.1665 43.866C26.8807 43.2184 24.4054 40.36 24.4054 36.9372C24.4054 36.9052 24.4054 36.8765 24.4064 36.8469C25.374 37.3765 26.4806 37.6951 27.6588 37.7308C25.7306 36.4644 24.4632 34.2996 24.4632 31.8471C24.4632 30.552 24.8188 29.3387 25.4356 28.2941C28.9769 32.5712 34.2692 35.3841 40.2374 35.6797C40.1143 35.1619 40.0508 34.6224 40.0508 34.0679C40.0508 30.1658 43.2669 27 47.2326 27C49.2982 27 51.1638 27.8595 52.4743 29.2335C54.1103 28.9158 55.6465 28.3275 57.0342 27.5178C56.4972 29.1677 55.3591 30.552 53.8763 31.4275C55.329 31.2564 56.7134 30.8772 58 30.3143C57.039 31.732 55.8203 32.9772 54.4182 33.9749Z" fill="black"/>
</svg>
