<svg width="36" height="50" viewBox="0 0 36 50" fill="none" xmlns="http://www.w3.org/2000/svg">
<g clip-path="url(#clip0_823_2)">
<path d="M35.1682 17.5841C35.1682 27.2956 24.9236 40.2906 17.5841 44.6484C10.0918 40.4435 0 27.2956 0 17.5841C0 7.87268 7.87268 0 17.5841 0C27.2956 0 35.1682 7.87268 35.1682 17.5841Z" fill="black"/>
<path d="M17.5075 49.9999C26.7545 49.9999 34.2506 47.9804 34.2506 45.4892C34.2506 42.998 26.7545 40.9785 17.5075 40.9785C8.26054 40.9785 0.764404 42.998 0.764404 45.4892C0.764404 47.9804 8.26054 49.9999 17.5075 49.9999Z" fill="black" fill-opacity="0.05"/>
<path d="M17.5077 46.7888C22.11 46.7888 25.841 45.7961 25.841 44.5716C25.841 43.3471 22.11 42.3545 17.5077 42.3545C12.9053 42.3545 9.17432 43.3471 9.17432 44.5716C9.17432 45.7961 12.9053 46.7888 17.5077 46.7888Z" fill="black" fill-opacity="0.2"/>
<path fill-rule="evenodd" clip-rule="evenodd" d="M9 14.307H13.4447V19.1006H21.8474V14.307H13.4504V10H26.4023V28.137H21.8474V23.4352H13.4447V28.137H9V14.307Z" fill="white"/>
</g>
<defs>
<clipPath id="clip0_823_2">
<rect width="36" height="50" fill="white"/>
</clipPath>
</defs>
</svg>
